<svg id="Icono_Instagram" data-name="Icono Instagram" xmlns="http://www.w3.org/2000/svg" xmlns:xlink="http://www.w3.org/1999/xlink" width="43" height="43" viewBox="0 0 43 43">
  <defs>
    <clipPath id="clip-path">
      <rect id="Rectangle_30" data-name="Rectangle 30" width="43" height="43" transform="translate(-0.368 -0.368)" fill="#fff"/>
    </clipPath>
  </defs>
  <g id="Group_5" data-name="Group 5" transform="translate(0.368 0.368)">
    <g id="Group_4" data-name="Group 4" clip-path="url(#clip-path)">
      <path id="Path_5" data-name="Path 5" d="M43.7,12.552a15.592,15.592,0,0,0-.993-5.179,10.936,10.936,0,0,0-6.247-6.247A15.647,15.647,0,0,0,31.283.134C29,.025,28.272,0,22.475,0s-6.522.025-8.8.125A15.609,15.609,0,0,0,8.5,1.118,10.421,10.421,0,0,0,4.71,3.587,10.51,10.51,0,0,0,2.25,7.365a15.649,15.649,0,0,0-.993,5.179c-.108,2.286-.134,3.011-.134,8.808s.025,6.522.125,8.8a15.6,15.6,0,0,0,.993,5.18,10.933,10.933,0,0,0,6.247,6.247,15.641,15.641,0,0,0,5.18.992c2.277.1,3,.125,8.8.125s6.522-.025,8.8-.125a15.594,15.594,0,0,0,5.179-.992,10.92,10.92,0,0,0,6.247-6.247,15.641,15.641,0,0,0,.993-5.18c.1-2.277.125-3,.125-8.8s-.009-6.522-.108-8.8M39.857,29.984a11.709,11.709,0,0,1-.734,3.962A7.082,7.082,0,0,1,35.07,38a11.753,11.753,0,0,1-3.962.734c-2.252.1-2.927.125-8.624.125s-6.38-.025-8.624-.125A11.706,11.706,0,0,1,9.9,38a6.568,6.568,0,0,1-2.452-1.593,6.641,6.641,0,0,1-1.593-2.452,11.755,11.755,0,0,1-.734-3.962c-.1-2.252-.125-2.928-.125-8.624s.025-6.381.125-8.624a11.7,11.7,0,0,1,.734-3.961,6.49,6.49,0,0,1,1.6-2.452A6.63,6.63,0,0,1,9.906,4.737,11.76,11.76,0,0,1,13.868,4c2.252-.1,2.928-.125,8.624-.125s6.38.025,8.624.125a11.711,11.711,0,0,1,3.962.734A6.567,6.567,0,0,1,37.53,6.33a6.632,6.632,0,0,1,1.593,2.452,11.755,11.755,0,0,1,.734,3.961c.1,2.252.125,2.927.125,8.624s-.025,6.364-.125,8.615" transform="translate(-1.047 -0.063)" fill="#fff"/>
    </g>
  </g>
  <g id="Group_7" data-name="Group 7" transform="translate(0.368 0.368)">
    <g id="Group_6" data-name="Group 6" clip-path="url(#clip-path)">
      <path id="Path_6" data-name="Path 6" d="M167.75,155.655a10.968,10.968,0,1,0,10.967,10.968,10.97,10.97,0,0,0-10.967-10.968m0,18.082a7.114,7.114,0,1,1,7.114-7.114,7.115,7.115,0,0,1-7.114,7.114" transform="translate(-146.321 -145.334)" fill="#fff"/>
      <path id="Path_7" data-name="Path 7" d="M458.835,113.333a2.561,2.561,0,1,1-2.561-2.56,2.56,2.56,0,0,1,2.561,2.56" transform="translate(-423.445 -103.446)" fill="#fff"/>
    </g>
  </g>
</svg>
