<svg id="Logo_Mel" data-name="Logo Mel" xmlns="http://www.w3.org/2000/svg" width="85.001" height="50.235" viewBox="0 0 85.001 50.235">
  <path id="mel_brand_complete" d="M18.226,49.929a2.747,2.747,0,0,1-1.072-.766,3.335,3.335,0,0,1-.766-1.225,5.22,5.22,0,0,1,0-3.063,3.335,3.335,0,0,1,.766-1.225,4.654,4.654,0,0,1,1.072-.766,5.442,5.442,0,0,1,1.532-.306,5.442,5.442,0,0,1,1.532.306,2.747,2.747,0,0,1,1.072.766,3.335,3.335,0,0,1,.766,1.225,5.22,5.22,0,0,1,0,3.063,5.373,5.373,0,0,1-.766,1.225,4.654,4.654,0,0,1-1.072.766,5.442,5.442,0,0,1-1.532.306H19.6A5.683,5.683,0,0,1,18.226,49.929Zm.153-1.991a1.2,1.2,0,0,0,.613.613,1.943,1.943,0,0,0,.919.153,1.943,1.943,0,0,0,.919-.153,1.2,1.2,0,0,0,.613-.613c.153-.306.306-.459.306-.766v-.919a1.942,1.942,0,0,0-.153-.919,1.17,1.17,0,0,0-.306-.766c-.153-.153-.306-.459-.613-.613a1.943,1.943,0,0,0-.919-.153,1.943,1.943,0,0,0-.919.153,1.2,1.2,0,0,0-.613.613c-.153.306-.306.459-.306.766s-.153.613-.153.919a1.943,1.943,0,0,0,.153.919h.153A1.17,1.17,0,0,0,18.379,47.938Zm63.407,2.144a3.372,3.372,0,0,1-1.225-.153c-.306-.153-.766-.306-1.072-.459s-.459-.459-.766-.766a2.885,2.885,0,0,1-.306-1.225h1.532a.921.921,0,0,0,.153.613c.153.153.153.306.306.459a.563.563,0,0,0,.459.153h1.072a.563.563,0,0,0,.459-.153.329.329,0,0,0,.306-.306.766.766,0,0,0,0-.919c-.153-.153-.306-.306-.459-.306a1.381,1.381,0,0,0-.766-.153l-.306-.153c-.306,0-.459-.153-.766-.306s-.459-.153-.766-.306a1.333,1.333,0,0,1-.613-1.378,1.125,1.125,0,0,1,.306-.919,1.2,1.2,0,0,1,.613-.613l.919-.459a1.943,1.943,0,0,1,.919-.153,2.606,2.606,0,0,1,1.072.153c.306.153.613.153.919.459a2.183,2.183,0,0,1,.919,1.838H83.164a1.158,1.158,0,0,0-.153-.613.329.329,0,0,0-.306-.306.563.563,0,0,0-.459-.153h-.919c-.153,0-.306,0-.306.153-.153,0-.153.153-.306.306a.535.535,0,0,1-.153.306c0,.153,0,.306.153.306.153.153.153.153.306.153a.921.921,0,0,0,.613.153l1.072.306.613.153c.306,0,.459.153.766.306a1.2,1.2,0,0,1,.613.613A2.214,2.214,0,0,1,85,47.785a1.943,1.943,0,0,1-.153.919,1.529,1.529,0,0,1-.613.766c-.306.153-.613.459-.919.459a5.21,5.21,0,0,1-1.532.153Zm-33.082,0H45.64v-7.2H48.7c.459,0,.919.153,1.378.153a2.468,2.468,0,0,1,1.072.613,4.654,4.654,0,0,1,.766,1.072,5.442,5.442,0,0,1,.306,1.532,5.21,5.21,0,0,1-.153,1.532,4.585,4.585,0,0,1-.613,1.225,2.747,2.747,0,0,1-1.072.766,6.514,6.514,0,0,1-1.685.306ZM47.325,48.7H48.7a.921.921,0,0,0,.613-.153c.153-.153.459-.153.613-.306s.306-.459.459-.613a2.271,2.271,0,0,0,.153-1.072,1.943,1.943,0,0,0-.153-.919,1.589,1.589,0,0,0-.919-1.225,1.943,1.943,0,0,0-.919-.153H47.325ZM65.7,50.082H62.641v-7.2H65.7c.459,0,.919.153,1.225.153A2.469,2.469,0,0,1,68,43.649a4.654,4.654,0,0,1,.766,1.072,5.442,5.442,0,0,1,.306,1.532,5.21,5.21,0,0,1-.153,1.532,4.585,4.585,0,0,1-.613,1.225,2.747,2.747,0,0,1-1.072.766,4.531,4.531,0,0,1-1.532.306ZM64.325,48.7H65.7a.921.921,0,0,0,.613-.153c.153-.153.459-.153.613-.306s.306-.459.459-.613a2.271,2.271,0,0,0,.153-1.072,1.943,1.943,0,0,0-.153-.919,1.17,1.17,0,0,0-.306-.766c-.153-.153-.459-.306-.613-.459a2.271,2.271,0,0,0-1.072-.153H64.325Zm-5.207,1.225L58.506,48.4H55.749l-.613,1.532H53.6l2.757-7.2h1.532l2.757,7.2Zm-2.757-2.757H58.2l-.919-2.6ZM33.694,49.929v-7.2h1.532v7.2Zm-7.964,0v-7.2h3.216a3.372,3.372,0,0,1,1.225.153,3.348,3.348,0,0,1,.766.459,3.348,3.348,0,0,1,.459.766,1.943,1.943,0,0,1,.153.919,1.148,1.148,0,0,1-.153.766,3.348,3.348,0,0,1-.459.766,1.3,1.3,0,0,1-.766.459,2.986,2.986,0,0,1-1.225.153H27.262v2.6Zm1.532-3.676h1.685c.153,0,.306-.153.459-.153.153-.153.306-.153.306-.306.153-.153.153-.306.153-.613a.921.921,0,0,0-.153-.613c-.153-.153-.153-.306-.306-.306a.563.563,0,0,0-.459-.153H27.262ZM0,49.929v-7.2H3.216a3.372,3.372,0,0,1,1.225.153,3.348,3.348,0,0,1,.766.459,3.348,3.348,0,0,1,.459.766,1.943,1.943,0,0,1,.153.919,1.148,1.148,0,0,1-.153.766,3.348,3.348,0,0,1-.459.766.842.842,0,0,1-.766.459,2.986,2.986,0,0,1-1.225.153H1.532v2.6Zm1.532-3.676H3.216c.153,0,.306-.153.459-.153.153-.153.306-.153.306-.306.153-.153.153-.306.153-.613a.921.921,0,0,0-.153-.613.329.329,0,0,0-.306-.306.563.563,0,0,0-.459-.153H1.532Zm11.027,3.676a1.665,1.665,0,0,1-.153-.766,1.943,1.943,0,0,0-.153-.919,1.17,1.17,0,0,0-.306-.766,2.177,2.177,0,0,0-.919-.306H9.5v2.91H7.964v-7.2h3.982a1.943,1.943,0,0,1,.919.153,2.114,2.114,0,0,1,.613.459,2.281,2.281,0,0,1,.613,1.378,2.214,2.214,0,0,1-.306,1.072,1.569,1.569,0,0,1-.919.766c.153,0,.306.153.459.306s.306.306.306.459c.153-.153.153,0,.306.153a1.158,1.158,0,0,0,.153.613v1.378a.535.535,0,0,0,.153.306Zm-2.91-3.982h1.685c.306,0,.613,0,.766-.306a1.17,1.17,0,0,0,.306-.766c0-.306,0-.613-.306-.766s-.459-.306-.766-.306H9.649Zm61.722,3.982v-7.2h5.36v1.378H72.9V45.64h3.676v1.225H73.055V48.55h3.829v1.378Zm-33.388,0v-7.2h5.36v1.378H39.514V45.64h3.523v1.225H39.514V48.55h3.829v1.378ZM43.956,24.5c0-8.117,5.36-14.7,13.325-14.7,10.108,0,14.4,6.126,14.4,17H53.145c.306,3.216,1.838,5.36,4.9,5.36a4.422,4.422,0,0,0,4.135-1.991h9.036c-1.991,5.973-7.351,8.883-13.018,8.883C50.082,39.055,43.956,33.847,43.956,24.5ZM53.3,21.289h9.189a4.551,4.551,0,0,0-4.135-4.748H58.2C55.289,16.694,53.6,18.226,53.3,21.289ZM75.046,38.442V0H84.7V38.442Zm-44.568,0V13.784h-.153L24.2,38.442H16.235L10.261,13.784h-.153V38.442H0V0H15.316l4.9,22.667h.153L25.424,0H40.739V38.442Z" fill="#fff"/>
</svg>
