<svg xmlns="http://www.w3.org/2000/svg" xmlns:xlink="http://www.w3.org/1999/xlink" width="1241" height="427.515" viewBox="0 0 1241 427.515">
  <defs>
    <clipPath id="clip-path">
      <rect id="Rectangle_70" data-name="Rectangle 70" width="562.604" height="304.065" fill="#d41725"/>
    </clipPath>
    <clipPath id="clip-path-2">
      <path id="Path_12" data-name="Path 12" d="M184.767,26.253a33.363,33.363,0,0,1,17.016,29.4c0,15.46-11.345,27.47-27.253,27.47-16.6,0-26-10.49-26-25.535,0-14.079,10.787-24.847,23.236-28.293-2.628-1.935-6.225-3.316-11.341-3.316-26.972,0-32.919,36.991-32.919,65.285,0,39.892,18.812,50.244,35.408,50.244,7.748,0,21.855-1.658,34.3-18.911l4.84,1.8c-7.052,22.769-25.448,48.028-59.2,48.028-37.9,0-68.332-20.15-68.332-77.152,0-54.383,31.815-77.568,72.894-77.568,16.462,0,29.742,4,37.347,8.555" transform="translate(430.427 848.786)" fill="#fff"/>
    </clipPath>
    <clipPath id="clip-path-3">
      <path id="Path_13" data-name="Path 13" d="M229.872,122.593l4.828,1.8c-7.17,22.773-25.512,48.032-59.017,48.032-36.263,0-65.356-20.154-65.356-77.156,0-54.383,31.712-77.568,72.665-77.568,32.955,0,53.362,17.8,53.362,63.35H163.412c-.277,3.312-.277,6.763-.277,10.213,0,39.888,17.237,50.244,32.543,50.244,7.582,0,21.784-1.658,34.194-18.911M162.446,75.666h32.678c.277-27.6-3.724-51.344-14.2-51.344-9.928,0-16.545,13.941-18.476,51.344" transform="translate(1088.251 848.786)" fill="#fff"/>
    </clipPath>
  </defs>
  <g id="Group_33" data-name="Group 33" transform="translate(-679 -304)">
    <rect id="Rectangle_72" data-name="Rectangle 72" width="846" height="284" transform="translate(1074 304)" fill="#d41725"/>
    <g id="Nice" transform="translate(679 427.449)">
      <g id="Group_12" data-name="Group 12" clip-path="url(#clip-path)">
        <path id="Path_10" data-name="Path 10" d="M190.666,11.023c-17.158,3.7-19.9,12.045-19.9,43.671V203.917c-2.746-.277-5.9-.412-9.2-.412-3.431,0-6.862.135-10.569.412L26.493,68.247V149.02c0,37.51,1.65,45.586,28.416,49.282v5.615c-7.55-.55-21.139-.823-31.574-.823-8.373,0-17.7.273-23.335.823V198.3c17.162-3.7,20.043-12.046,20.043-43.671V35.118c0-20.4-3.158-23.272-20.043-24.095V5.408c5.631.55,14.962.823,23.335.823,9.335,0,18.943-.273,25.947-.823L164.173,126.567V60.305c0-37.51-1.646-45.586-28.278-49.282V5.408c7.55.55,21,.823,31.435.823,8.373,0,17.708-.273,23.335-.823Z" transform="translate(0 15.994)" fill="#d41725"/>
        <path id="Path_11" data-name="Path 11" d="M118.142,193.824c0,15.65,4.353,20.181,16.141,20.181v5.9c-7.72-.277-24.7-1.1-40.838-1.1-16,0-34.807.823-43.085,1.1v-5.9c11.788,0,16.137-4.531,16.137-20.181V104.6c0-16.881-4.068-24.708-16.137-24.708v-5.9c6.035.546,12.069.823,17.823.823,19.228,0,35.646-1.1,49.959-3.846ZM121.933,24.3c0,15.923-11.507,24.158-31.3,24.158-20.209,0-31.293-8.235-31.293-24.158C59.343,8.235,70.427,0,90.636,0c19.79,0,31.3,8.235,31.3,24.3" transform="translate(148.921 0.002)" fill="#d41725"/>
        <path id="Path_12-2" data-name="Path 12" d="M184.767,26.253a33.363,33.363,0,0,1,17.016,29.4c0,15.46-11.345,27.47-27.253,27.47-16.6,0-26-10.49-26-25.535,0-14.079,10.787-24.847,23.236-28.293-2.628-1.935-6.225-3.316-11.341-3.316-26.972,0-32.919,36.991-32.919,65.285,0,39.892,18.812,50.244,35.408,50.244,7.748,0,21.855-1.658,34.3-18.911l4.84,1.8c-7.052,22.769-25.448,48.028-59.2,48.028-37.9,0-68.332-20.15-68.332-77.152,0-54.383,31.815-77.568,72.894-77.568,16.462,0,29.742,4,37.347,8.555" transform="translate(220.38 52.337)" fill="#d41725"/>
        <path id="Path_13-2" data-name="Path 13" d="M229.872,122.593l4.828,1.8c-7.17,22.773-25.512,48.032-59.017,48.032-36.263,0-65.356-20.154-65.356-77.156,0-54.383,31.712-77.568,72.665-77.568,32.955,0,53.362,17.8,53.362,63.35H163.412c-.277,3.312-.277,6.763-.277,10.213,0,39.888,17.237,50.244,32.543,50.244,7.582,0,21.784-1.658,34.194-18.911M162.446,75.666h32.678c.277-27.6-3.724-51.344-14.2-51.344-9.928,0-16.545,13.941-18.476,51.344" transform="translate(326.251 52.337)" fill="#d41725"/>
        <path id="Path_14" data-name="Path 14" d="M25.04,68.417h6.276V80.684H42.17V68.417h6.256v32.512H42.17V86.675H31.316v14.254H25.04Z" transform="translate(74.046 202.318)" fill="#d41725"/>
        <path id="Path_15" data-name="Path 15" d="M51.922,68.21A16.148,16.148,0,0,1,63.786,73.2a17.339,17.339,0,0,1,.067,24.226,16.14,16.14,0,0,1-11.887,4.927A16.123,16.123,0,0,1,39.8,97.295,17.083,17.083,0,0,1,51.922,68.21m-.067,6.054a10.213,10.213,0,0,0-7.59,3.138,10.934,10.934,0,0,0-3.075,7.982,10.4,10.4,0,0,0,3.87,8.532,10.629,10.629,0,0,0,6.905,2.453,10.067,10.067,0,0,0,7.5-3.185,11.469,11.469,0,0,0-.02-15.7,10.178,10.178,0,0,0-7.59-3.217" transform="translate(103.375 201.707)" fill="#d41725"/>
        <path id="Path_16" data-name="Path 16" d="M47.512,68.417H53.7V95.028h9.018v5.9H47.512Z" transform="translate(140.499 202.318)" fill="#d41725"/>
        <path id="Path_17" data-name="Path 17" d="M55.084,68.417h6.189V95.028h9.018v5.9H55.084Z" transform="translate(162.891 202.318)" fill="#d41725"/>
        <path id="Path_18" data-name="Path 18" d="M62.072,68.417h6.644l6.066,11.7,6.035-11.7h6.561L77.865,86.849v14.079H71.633V86.849Z" transform="translate(183.556 202.318)" fill="#d41725"/>
        <path id="Path_19" data-name="Path 19" d="M71.667,68.417h6.09l4.7,20.755,5.805-20.755H93.4L99.3,89.172l4.654-20.755h6.09l-7.329,32.512H96.774L90.787,79.912l-5.88,21.016h-5.88Z" transform="translate(211.927 202.318)" fill="#d41725"/>
        <path id="Path_20" data-name="Path 20" d="M101.679,68.21A16.148,16.148,0,0,1,113.543,73.2a16.611,16.611,0,0,1,4.966,12.18,16.43,16.43,0,0,1-4.9,12.045,16.977,16.977,0,0,1-24.051-.135A17.083,17.083,0,0,1,101.679,68.21m-.067,6.054a10.22,10.22,0,0,0-7.59,3.138,10.934,10.934,0,0,0-3.075,7.982,10.4,10.4,0,0,0,3.874,8.532,10.611,10.611,0,0,0,6.9,2.453,10.067,10.067,0,0,0,7.5-3.185,11.469,11.469,0,0,0-.02-15.7,10.178,10.178,0,0,0-7.59-3.217" transform="translate(250.513 201.707)" fill="#d41725"/>
        <path id="Path_21" data-name="Path 21" d="M113.826,68.21A16.142,16.142,0,0,1,125.69,73.2a16.611,16.611,0,0,1,4.966,12.18,16.43,16.43,0,0,1-4.9,12.045,16.977,16.977,0,0,1-24.051-.135A17.083,17.083,0,0,1,113.826,68.21m-.067,6.054a10.22,10.22,0,0,0-7.59,3.138,10.934,10.934,0,0,0-3.075,7.982,10.4,10.4,0,0,0,3.874,8.532,10.611,10.611,0,0,0,6.9,2.453,10.066,10.066,0,0,0,7.5-3.185,11.469,11.469,0,0,0-.02-15.7,10.178,10.178,0,0,0-7.59-3.217" transform="translate(286.433 201.707)" fill="#d41725"/>
        <path id="Path_22" data-name="Path 22" d="M109.421,68.417h7.333q7.087,0,10.534,1.757a13.726,13.726,0,0,1,5.675,5.714,20.032,20.032,0,0,1,.985,16.145A14.372,14.372,0,0,1,130.5,97.26a12.152,12.152,0,0,1-4.76,2.873,33.873,33.873,0,0,1-8.876.8h-7.443Zm6.145,5.967v20.51h2.873a14.394,14.394,0,0,0,6.157-.973,7.388,7.388,0,0,0,3.126-3.273,12.012,12.012,0,0,0,1.215-5.667q0-5.176-2.893-8.029-2.612-2.57-8.377-2.568Z" transform="translate(323.571 202.319)" fill="#d41725"/>
      </g>
    </g>
    <g id="Mask_Group_8" data-name="Mask Group 8" transform="translate(469.048 -368.362)" clip-path="url(#clip-path-2)">
      <rect id="Rectangle_74" data-name="Rectangle 74" width="847" height="284" transform="translate(604.048 673)" fill="#fff"/>
    </g>
    <g id="Mask_Group_9" data-name="Mask Group 9" transform="translate(-83 -368.366)" clip-path="url(#clip-path-3)">
      <rect id="Rectangle_73" data-name="Rectangle 73" width="924" height="284" transform="translate(1079 673)" fill="#fff"/>
    </g>
  </g>
</svg>
