<svg id="Group_32" data-name="Group 32" xmlns="http://www.w3.org/2000/svg" xmlns:xlink="http://www.w3.org/1999/xlink" width="140.334" height="75.845" viewBox="0 0 140.334 75.845">
  <defs>
    <clipPath id="clip-path">
      <rect id="Rectangle_70" data-name="Rectangle 70" width="140.334" height="75.845" fill="#6d6d6d"/>
    </clipPath>
  </defs>
  <g id="Group_12" data-name="Group 12" transform="translate(0 0)" clip-path="url(#clip-path)">
    <path id="Path_10" data-name="Path 10" d="M47.559,6.809c-4.28.922-4.965,3-4.965,10.893V54.923c-.685-.069-1.472-.1-2.294-.1-.856,0-1.712.034-2.636.1L6.608,21.082V41.23c0,9.356.412,11.371,7.088,12.293v1.4c-1.883-.137-5.273-.205-7.876-.205-2.089,0-4.416.068-5.821.205v-1.4c4.281-.922,5-3,5-10.893V12.819c0-5.088-.788-5.8-5-6.01v-1.4c1.4.137,3.732.205,5.821.205,2.328,0,4.725-.068,6.472-.205L40.951,35.63V19.1c0-9.356-.411-11.371-7.053-12.293v-1.4c1.883.137,5.239.205,7.841.205,2.089,0,4.417-.068,5.821-.205Z" transform="translate(0 -0.07)" fill="#6d6d6d"/>
    <path id="Path_11" data-name="Path 11" d="M67.267,48.347c0,3.9,1.086,5.034,4.026,5.034v1.473c-1.926-.069-6.161-.274-10.186-.274-3.991,0-8.682.205-10.747.274V53.381c2.94,0,4.025-1.13,4.025-5.034V26.091c0-4.211-1.015-6.163-4.025-6.163V18.456c1.505.136,3.011.205,4.446.205A66.823,66.823,0,0,0,67.267,17.7ZM68.213,6.06c0,3.972-2.87,6.026-7.807,6.026-5.041,0-7.806-2.054-7.806-6.026C52.6,2.054,55.365,0,60.406,0c4.936,0,7.807,2.054,7.807,6.06" transform="translate(-0.652 0)" fill="#6d6d6d"/>
    <path id="Path_12" data-name="Path 12" d="M102.023,19.832a8.322,8.322,0,0,1,4.244,7.333,6.65,6.65,0,0,1-6.8,6.852c-4.14,0-6.486-2.617-6.486-6.369a7.574,7.574,0,0,1,5.8-7.057,4.6,4.6,0,0,0-2.829-.827c-6.728,0-8.211,9.227-8.211,16.284,0,9.95,4.692,12.533,8.832,12.533,1.933,0,5.451-.414,8.557-4.717l1.207.448c-1.759,5.679-6.348,11.98-14.766,11.98-9.454,0-17.044-5.026-17.044-19.245,0-13.565,7.936-19.348,18.182-19.348a18.912,18.912,0,0,1,9.316,2.134" transform="translate(-0.965 -0.229)" fill="#6d6d6d"/>
    <path id="Path_13" data-name="Path 13" d="M140.146,43.863l1.2.448c-1.789,5.68-6.364,11.981-14.721,11.981-9.045,0-16.3-5.027-16.3-19.246,0-13.565,7.91-19.348,18.125-19.348,8.22,0,13.31,4.441,13.31,15.8H123.568c-.069.826-.069,1.687-.069,2.548,0,9.949,4.3,12.533,8.118,12.533,1.891,0,5.434-.414,8.529-4.717M123.327,32.157h8.151c.069-6.886-.929-12.807-3.543-12.807-2.477,0-4.127,3.477-4.609,12.807" transform="translate(-1.429 -0.229)" fill="#6d6d6d"/>
    <path id="Path_14" data-name="Path 14" d="M25.04,68.417h1.565v3.06h2.707v-3.06h1.561v8.11H29.313V72.971H26.605v3.555H25.04Z" transform="translate(-0.324 -0.886)" fill="#6d6d6d"/>
    <path id="Path_15" data-name="Path 15" d="M39.189,68.21a4.028,4.028,0,0,1,2.959,1.246,4.325,4.325,0,0,1,.017,6.043,4.235,4.235,0,0,1-6-.034,4.261,4.261,0,0,1,3.023-7.255m-.017,1.51a2.548,2.548,0,0,0-1.893.783,2.727,2.727,0,0,0-.767,1.991,2.6,2.6,0,0,0,.965,2.128,2.651,2.651,0,0,0,1.722.612,2.511,2.511,0,0,0,1.87-.795,2.861,2.861,0,0,0,0-3.917,2.539,2.539,0,0,0-1.893-.8" transform="translate(-0.453 -0.883)" fill="#6d6d6d"/>
    <path id="Path_16" data-name="Path 16" d="M47.512,68.417h1.544v6.638h2.249v1.472H47.512Z" transform="translate(-0.615 -0.886)" fill="#6d6d6d"/>
    <path id="Path_17" data-name="Path 17" d="M55.084,68.417h1.544v6.638h2.249v1.472H55.084Z" transform="translate(-0.713 -0.886)" fill="#6d6d6d"/>
    <path id="Path_18" data-name="Path 18" d="M62.072,68.417H63.73l1.513,2.918,1.505-2.918h1.637l-2.373,4.6v3.512H64.457V73.014Z" transform="translate(-0.804 -0.886)" fill="#6d6d6d"/>
    <path id="Path_19" data-name="Path 19" d="M71.667,68.417h1.519l1.172,5.177,1.448-5.177h1.283l1.47,5.177,1.161-5.177h1.519l-1.828,8.11H77.929l-1.493-5.242-1.467,5.242H73.5Z" transform="translate(-0.928 -0.886)" fill="#6d6d6d"/>
    <path id="Path_20" data-name="Path 20" d="M88.947,68.21a4.028,4.028,0,0,1,2.959,1.246,4.143,4.143,0,0,1,1.239,3.038,4.1,4.1,0,0,1-1.222,3,4.235,4.235,0,0,1-6-.034,4.261,4.261,0,0,1,3.023-7.255m-.017,1.51a2.549,2.549,0,0,0-1.893.783,2.727,2.727,0,0,0-.767,1.991,2.593,2.593,0,0,0,.966,2.128,2.647,2.647,0,0,0,1.721.612,2.511,2.511,0,0,0,1.87-.795,2.861,2.861,0,0,0,0-3.917,2.539,2.539,0,0,0-1.893-.8" transform="translate(-1.097 -0.883)" fill="#6d6d6d"/>
    <path id="Path_21" data-name="Path 21" d="M101.094,68.21a4.026,4.026,0,0,1,2.959,1.246,4.143,4.143,0,0,1,1.239,3.038,4.1,4.1,0,0,1-1.222,3,4.235,4.235,0,0,1-6-.034,4.261,4.261,0,0,1,3.023-7.255m-.017,1.51a2.549,2.549,0,0,0-1.893.783,2.727,2.727,0,0,0-.767,1.991,2.593,2.593,0,0,0,.966,2.128,2.647,2.647,0,0,0,1.721.612,2.511,2.511,0,0,0,1.87-.795,2.861,2.861,0,0,0,0-3.917,2.539,2.539,0,0,0-1.893-.8" transform="translate(-1.254 -0.883)" fill="#6d6d6d"/>
    <path id="Path_22" data-name="Path 22" d="M109.421,68.417h1.829a6.028,6.028,0,0,1,2.628.438,3.424,3.424,0,0,1,1.415,1.425,5,5,0,0,1,.246,4.027,3.585,3.585,0,0,1-.86,1.3,3.031,3.031,0,0,1-1.187.717,8.449,8.449,0,0,1-2.214.2h-1.857Zm1.533,1.488v5.116h.717a3.59,3.59,0,0,0,1.536-.243,1.843,1.843,0,0,0,.78-.816,3,3,0,0,0,.3-1.413,2.687,2.687,0,0,0-.722-2,2.894,2.894,0,0,0-2.09-.641Z" transform="translate(-1.417 -0.886)" fill="#6d6d6d"/>
  </g>
</svg>
