<svg xmlns="http://www.w3.org/2000/svg" xmlns:xlink="http://www.w3.org/1999/xlink" width="32.491" height="31.993" viewBox="0 0 32.491 31.993">
  <defs>
    <clipPath id="clip-path">
      <rect id="Rectangle_28" data-name="Rectangle 28" width="32.491" height="31.993" fill="#fff"/>
    </clipPath>
  </defs>
  <g id="Group_30" data-name="Group 30" transform="translate(-1618.125 -56.868)">
    <g id="Icono_Whatsapp" data-name="Icono Whatsapp" transform="translate(1618.125 56.868)">
      <g id="Group_2" data-name="Group 2" clip-path="url(#clip-path)">
        <path id="Path_1" data-name="Path 1" d="M27.757,4.649A16.24,16.24,0,0,0,16.313,0,16.04,16.04,0,0,0,.136,15.852,15.581,15.581,0,0,0,2.3,23.778L0,31.993l8.576-2.2a16.424,16.424,0,0,0,7.731,1.93h.007A16.041,16.041,0,0,0,32.491,15.865,15.6,15.6,0,0,0,27.757,4.649M16.313,29.041h-.005A13.638,13.638,0,0,1,9.464,27.2l-.491-.286L3.884,28.226l1.358-4.862-.32-.5a12.95,12.95,0,0,1-2.056-7.012A13.333,13.333,0,0,1,16.319,2.677a13.494,13.494,0,0,1,9.506,3.864,12.967,12.967,0,0,1,3.935,9.322A13.333,13.333,0,0,1,16.313,29.041m7.375-9.869c-.4-.2-2.391-1.156-2.762-1.289s-.64-.2-.909.2-1.044,1.289-1.28,1.553-.471.3-.876.1a11.089,11.089,0,0,1-3.251-1.966,11.991,11.991,0,0,1-2.249-2.744c-.236-.4,0-.59.177-.808a11.207,11.207,0,0,0,1.01-1.355.716.716,0,0,0-.034-.694c-.1-.2-.909-2.148-1.246-2.941-.328-.772-.661-.668-.909-.68s-.505-.014-.775-.014a1.5,1.5,0,0,0-1.078.5,4.406,4.406,0,0,0-1.415,3.3,7.628,7.628,0,0,0,1.651,4.1c.2.264,2.85,4.265,6.905,5.981a23.4,23.4,0,0,0,2.3.834A5.65,5.65,0,0,0,21.5,23.4a4.165,4.165,0,0,0,2.729-1.884,3.249,3.249,0,0,0,.236-1.884c-.1-.165-.371-.264-.775-.463" fill="#fff" fill-rule="evenodd"/>
      </g>
    </g>
  </g>
</svg>
